<svg id="Capa_1" enable-background="new 0 0 512 512" height="512" viewBox="0 0 512 512" width="512" xmlns="http://www.w3.org/2000/svg"><g><g><g><g><g><g><g><circle cx="256" cy="256" fill="#ace237" r="256"/></g></g></g></g></g></g><path d="m512 256c0-12.241-.859-24.282-2.521-36.065l-44.751-44.751-226.26 40.968-182.592-79.097 227.211 227.211-139.833 81.431 61.089 61.089c16.685 3.419 33.961 5.214 51.657 5.214 141.385 0 256-114.615 256-256z" fill="#9fc612"/><g><path d="m237.679 137.055h-181.803l194.124 150.798 8.503-75.399z" fill="#fff"/></g><g><path d="m285.596 404.827 122.611-150.798-85.264 4.558-72.943 29.266 9.154 59.349z" fill="#fff"/></g><g><path d="m322.943 258.587-37.074 14.875v131.028l122.338-150.461z" fill="#e9edf5"/></g><g><path d="m387.067 122.962 77.661 52.223-77.661 19.653z" fill="#cdd2e1"/></g><g><path d="m387.067 122.962 21.14 131.067-85.969-56.373z" fill="#e9edf5"/></g><g><path d="m408.207 254.029-170.528-116.974 12.321 150.798z" fill="#e9edf5"/></g><g><path d="m285.869 170.111v110.073l122.338-26.155z" fill="#cdd2e1"/></g><g><path d="m250 287.853 35.596 116.974-142.342 40.87z" fill="#e9edf5"/></g></g></svg>